<svg xmlns="http://www.w3.org/2000/svg" xmlns:xlink="http://www.w3.org/1999/xlink" width="300" zoomAndPan="magnify" viewBox="0 0 224.87999 63.749997" height="85" preserveAspectRatio="xMidYMid meet" version="1.0"><defs><g/><clipPath id="98387c6f62"><path d="M 0.378906 0 L 224.382812 0 L 224.382812 63.5 L 0.378906 63.5 Z M 0.378906 0 " clip-rule="nonzero"/></clipPath><clipPath id="c2308126ed"><path d="M 178 24 L 224.382812 24 L 224.382812 49 L 178 49 Z M 178 24 " clip-rule="nonzero"/></clipPath><clipPath id="b5ebf21561"><rect x="0" width="225" y="0" height="64"/></clipPath></defs><g clip-path="url(#98387c6f62)"><g transform="matrix(1, 0, 0, 1, 0.000000000000000056, 0.000000000000003647)"><g clip-path="url(#b5ebf21561)"><g fill="#ffffff" fill-opacity="1"><g transform="translate(0.379453, 59.867439)"><g><path d="M 2.296875 -51.40625 C 2.296875 -51.507812 2.269531 -51.585938 2.21875 -51.640625 Z M 3.953125 -12.484375 C 3.210938 -12.484375 2.578125 -12.664062 2.046875 -13.03125 C 1.210938 -13.664062 0.796875 -14.742188 0.796875 -16.265625 C 0.847656 -16.847656 0.875 -17.320312 0.875 -17.6875 C 0.875 -18.050781 0.898438 -18.34375 0.953125 -18.5625 C 1.003906 -18.820312 1.03125 -19.097656 1.03125 -19.390625 C 1.03125 -19.679688 1.03125 -19.984375 1.03125 -20.296875 C 1.03125 -20.984375 1.054688 -21.351562 1.109375 -21.40625 C 1.109375 -21.457031 1.109375 -21.535156 1.109375 -21.640625 C 1.109375 -21.742188 1.109375 -21.898438 1.109375 -22.109375 C 1.109375 -22.742188 1.132812 -23.113281 1.1875 -23.21875 C 1.1875 -23.269531 1.1875 -23.304688 1.1875 -23.328125 C 1.1875 -23.359375 1.1875 -23.398438 1.1875 -23.453125 L 1.265625 -25.265625 C 1.265625 -25.421875 1.289062 -25.554688 1.34375 -25.671875 C 1.34375 -25.773438 1.34375 -25.90625 1.34375 -26.0625 C 1.34375 -26.21875 1.34375 -26.398438 1.34375 -26.609375 C 1.34375 -27.085938 1.367188 -27.378906 1.421875 -27.484375 C 1.421875 -27.585938 1.421875 -27.726562 1.421875 -27.90625 C 1.421875 -28.09375 1.421875 -28.320312 1.421875 -28.59375 C 1.421875 -29.21875 1.445312 -29.632812 1.5 -29.84375 C 1.550781 -30.582031 1.585938 -31.320312 1.609375 -32.0625 C 1.640625 -32.800781 1.65625 -33.535156 1.65625 -34.265625 C 1.65625 -34.429688 1.65625 -34.59375 1.65625 -34.75 C 1.65625 -34.90625 1.679688 -35.0625 1.734375 -35.21875 C 1.734375 -35.375 1.734375 -35.53125 1.734375 -35.6875 C 1.734375 -35.851562 1.734375 -36.015625 1.734375 -36.171875 C 1.734375 -36.273438 1.734375 -36.40625 1.734375 -36.5625 C 1.734375 -36.71875 1.757812 -36.875 1.8125 -37.03125 C 1.8125 -37.1875 1.8125 -37.34375 1.8125 -37.5 C 1.8125 -37.664062 1.8125 -37.800781 1.8125 -37.90625 C 1.8125 -38.007812 1.8125 -38.140625 1.8125 -38.296875 C 1.8125 -38.453125 1.835938 -38.613281 1.890625 -38.78125 C 1.890625 -38.9375 1.890625 -39.09375 1.890625 -39.25 C 1.890625 -39.40625 1.890625 -39.535156 1.890625 -39.640625 C 1.890625 -39.742188 1.890625 -39.875 1.890625 -40.03125 C 1.890625 -40.195312 1.914062 -40.359375 1.96875 -40.515625 C 1.96875 -40.617188 1.96875 -40.867188 1.96875 -41.265625 C 1.96875 -41.660156 1.96875 -42.195312 1.96875 -42.875 C 2.019531 -43.5625 2.054688 -44.285156 2.078125 -45.046875 C 2.109375 -45.816406 2.125 -46.617188 2.125 -47.453125 C 2.1875 -47.773438 2.21875 -48.171875 2.21875 -48.640625 C 2.21875 -49.117188 2.21875 -49.671875 2.21875 -50.296875 L 2.125 -52.28125 C 2.125 -53.070312 2.441406 -53.78125 3.078125 -54.40625 C 3.765625 -54.988281 4.503906 -55.28125 5.296875 -55.28125 C 6.023438 -55.28125 6.734375 -55.066406 7.421875 -54.640625 C 8.054688 -54.117188 8.398438 -53.4375 8.453125 -52.59375 C 8.503906 -52.4375 8.53125 -51.59375 8.53125 -50.0625 C 8.53125 -49.4375 8.53125 -48.882812 8.53125 -48.40625 C 8.53125 -47.9375 8.503906 -47.566406 8.453125 -47.296875 C 8.453125 -46.773438 8.453125 -46.328125 8.453125 -45.953125 C 8.453125 -45.585938 8.453125 -45.351562 8.453125 -45.25 C 8.398438 -45.144531 8.375 -45 8.375 -44.8125 C 8.375 -44.625 8.375 -44.425781 8.375 -44.21875 C 8.375 -43.800781 8.359375 -43.316406 8.328125 -42.765625 C 8.304688 -42.210938 8.269531 -41.617188 8.21875 -40.984375 C 8.21875 -40.296875 8.21875 -39.738281 8.21875 -39.3125 C 8.21875 -38.894531 8.21875 -38.609375 8.21875 -38.453125 C 8.164062 -38.296875 8.140625 -38.140625 8.140625 -37.984375 C 8.140625 -37.828125 8.140625 -37.671875 8.140625 -37.515625 C 8.140625 -37.085938 8.140625 -36.648438 8.140625 -36.203125 C 8.140625 -35.753906 8.113281 -35.320312 8.0625 -34.90625 C 8 -34.75 7.96875 -34.585938 7.96875 -34.421875 C 7.96875 -34.265625 7.96875 -34.132812 7.96875 -34.03125 C 7.96875 -33.925781 7.96875 -33.796875 7.96875 -33.640625 C 7.96875 -33.484375 7.96875 -33.328125 7.96875 -33.171875 C 7.914062 -32.953125 7.890625 -32.6875 7.890625 -32.375 C 7.890625 -32.269531 7.890625 -32.140625 7.890625 -31.984375 C 7.890625 -31.828125 7.890625 -31.695312 7.890625 -31.59375 C 7.835938 -31.425781 7.8125 -31.25 7.8125 -31.0625 C 7.8125 -30.882812 7.8125 -30.664062 7.8125 -30.40625 L 7.65625 -26.765625 C 7.65625 -26.710938 7.65625 -26.644531 7.65625 -26.5625 C 7.65625 -26.488281 7.65625 -26.398438 7.65625 -26.296875 C 7.601562 -26.140625 7.578125 -25.691406 7.578125 -24.953125 L 7.5 -23.21875 C 7.5 -23.164062 7.5 -23.113281 7.5 -23.0625 C 7.5 -23.007812 7.5 -22.929688 7.5 -22.828125 C 7.445312 -22.660156 7.421875 -22.367188 7.421875 -21.953125 C 7.421875 -21.585938 7.394531 -21.40625 7.34375 -21.40625 C 7.34375 -21.082031 7.34375 -20.765625 7.34375 -20.453125 C 7.34375 -20.140625 7.316406 -19.847656 7.265625 -19.578125 L 7.265625 -18.875 L 19.265625 -18.875 C 20.796875 -18.875 21.925781 -18.347656 22.65625 -17.296875 C 22.976562 -16.816406 23.140625 -16.316406 23.140625 -15.796875 C 23.140625 -15.265625 22.976562 -14.710938 22.65625 -14.140625 C 22.03125 -13.085938 20.925781 -12.5625 19.34375 -12.5625 C 10.5 -12.5625 6.023438 -12.585938 5.921875 -12.640625 C 5.867188 -12.640625 5.765625 -12.640625 5.609375 -12.640625 C 5.453125 -12.640625 5.265625 -12.640625 5.046875 -12.640625 C 4.835938 -12.585938 4.65625 -12.546875 4.5 -12.515625 C 4.34375 -12.492188 4.160156 -12.484375 3.953125 -12.484375 Z M 3.953125 -12.484375 "/></g></g></g><g fill="#ffffff" fill-opacity="1"><g transform="translate(24.148577, 59.867439)"><g><path d="M 19.5 -33.171875 L 19.421875 -33.25 L 19.421875 -33.171875 Z M 15.71875 -10.890625 L 13.90625 -10.890625 L 13.03125 -11.0625 C 12.601562 -11.164062 12.207031 -11.269531 11.84375 -11.375 C 11.476562 -11.476562 11.132812 -11.582031 10.8125 -11.6875 C 10.707031 -11.738281 10.585938 -11.773438 10.453125 -11.796875 C 10.328125 -11.828125 10.210938 -11.867188 10.109375 -11.921875 C 9.847656 -12.023438 9.582031 -12.15625 9.3125 -12.3125 C 9.15625 -12.425781 9.007812 -12.507812 8.875 -12.5625 C 8.75 -12.613281 8.632812 -12.664062 8.53125 -12.71875 C 7.945312 -13.132812 7.378906 -13.523438 6.828125 -13.890625 C 6.273438 -14.265625 5.789062 -14.632812 5.375 -15 L 4.109375 -16.578125 C 4.003906 -16.847656 3.867188 -17.097656 3.703125 -17.328125 C 3.546875 -17.566406 3.414062 -17.789062 3.3125 -18 C 3 -18.425781 2.6875 -19.113281 2.375 -20.0625 C 2.269531 -20.476562 2.175781 -20.816406 2.09375 -21.078125 C 2.007812 -21.347656 1.941406 -21.535156 1.890625 -21.640625 C 1.785156 -21.953125 1.734375 -22.160156 1.734375 -22.265625 L 1.421875 -23.453125 L 1.03125 -26.53125 C 1.03125 -26.789062 1.03125 -27.039062 1.03125 -27.28125 C 1.03125 -27.519531 1.003906 -27.742188 0.953125 -27.953125 C 0.898438 -28.210938 0.875 -28.4375 0.875 -28.625 C 0.875 -28.8125 0.875 -28.957031 0.875 -29.0625 C 0.820312 -29.21875 0.796875 -29.613281 0.796875 -30.25 C 0.796875 -30.976562 0.820312 -31.425781 0.875 -31.59375 C 0.875 -31.695312 0.875 -31.957031 0.875 -32.375 C 0.875 -32.800781 0.875 -33.429688 0.875 -34.265625 L 0.796875 -34.828125 C 0.796875 -35.515625 1.003906 -36.117188 1.421875 -36.640625 C 2.160156 -37.535156 3.003906 -37.984375 3.953125 -37.984375 C 4.472656 -37.984375 5 -37.828125 5.53125 -37.515625 C 6.269531 -37.140625 6.769531 -36.453125 7.03125 -35.453125 C 7.132812 -35.035156 7.1875 -34.351562 7.1875 -33.40625 C 7.1875 -32.5625 7.160156 -32.085938 7.109375 -31.984375 C 7.109375 -30.242188 7.132812 -29.320312 7.1875 -29.21875 C 7.1875 -29.164062 7.1875 -29.070312 7.1875 -28.9375 C 7.1875 -28.8125 7.1875 -28.640625 7.1875 -28.421875 L 7.1875 -28.1875 C 7.238281 -27.976562 7.273438 -27.796875 7.296875 -27.640625 C 7.328125 -27.484375 7.34375 -27.328125 7.34375 -27.171875 C 7.34375 -27.054688 7.367188 -26.972656 7.421875 -26.921875 C 7.421875 -26.765625 7.445312 -26.609375 7.5 -26.453125 C 7.5 -26.191406 7.523438 -25.984375 7.578125 -25.828125 C 7.628906 -25.660156 7.65625 -25.210938 7.65625 -24.484375 L 7.734375 -24.25 C 7.835938 -23.820312 7.945312 -23.476562 8.0625 -23.21875 C 8.113281 -23.0625 8.164062 -22.890625 8.21875 -22.703125 C 8.269531 -22.515625 8.320312 -22.316406 8.375 -22.109375 C 8.632812 -21.691406 8.828125 -21.335938 8.953125 -21.046875 C 9.085938 -20.753906 9.179688 -20.554688 9.234375 -20.453125 C 9.335938 -20.140625 9.445312 -19.929688 9.5625 -19.828125 C 9.769531 -19.609375 9.898438 -19.445312 9.953125 -19.34375 L 11.140625 -18.5625 C 11.242188 -18.507812 11.332031 -18.457031 11.40625 -18.40625 C 11.488281 -18.351562 11.554688 -18.296875 11.609375 -18.234375 C 11.816406 -18.128906 12 -18.050781 12.15625 -18 C 12.257812 -17.945312 12.472656 -17.867188 12.796875 -17.765625 C 12.898438 -17.710938 13.015625 -17.660156 13.140625 -17.609375 C 13.273438 -17.554688 13.445312 -17.476562 13.65625 -17.375 C 13.757812 -17.320312 13.945312 -17.296875 14.21875 -17.296875 C 14.320312 -17.242188 14.609375 -17.21875 15.078125 -17.21875 C 15.503906 -17.21875 15.742188 -17.242188 15.796875 -17.296875 C 15.847656 -17.296875 15.882812 -17.296875 15.90625 -17.296875 C 15.9375 -17.296875 15.976562 -17.296875 16.03125 -17.296875 C 16.289062 -17.398438 16.515625 -17.476562 16.703125 -17.53125 C 16.890625 -17.582031 17.007812 -17.632812 17.0625 -17.6875 C 17.164062 -17.789062 17.398438 -17.945312 17.765625 -18.15625 C 17.816406 -18.207031 17.867188 -18.25 17.921875 -18.28125 C 17.972656 -18.3125 18.023438 -18.351562 18.078125 -18.40625 C 18.128906 -18.457031 18.195312 -18.507812 18.28125 -18.5625 C 18.363281 -18.613281 18.429688 -18.664062 18.484375 -18.71875 C 18.640625 -18.820312 18.769531 -18.953125 18.875 -19.109375 C 18.925781 -19.160156 18.960938 -19.210938 18.984375 -19.265625 C 19.015625 -19.316406 19.054688 -19.367188 19.109375 -19.421875 C 19.160156 -19.472656 19.1875 -19.539062 19.1875 -19.625 C 19.1875 -19.707031 19.210938 -19.773438 19.265625 -19.828125 C 19.316406 -19.878906 19.34375 -19.929688 19.34375 -19.984375 C 19.34375 -20.035156 19.367188 -20.085938 19.421875 -20.140625 C 19.523438 -20.347656 19.617188 -20.566406 19.703125 -20.796875 C 19.785156 -21.035156 19.878906 -21.34375 19.984375 -21.71875 C 20.035156 -21.820312 20.113281 -22.03125 20.21875 -22.34375 C 20.269531 -22.445312 20.296875 -22.601562 20.296875 -22.8125 C 20.296875 -23.03125 20.320312 -23.242188 20.375 -23.453125 C 20.582031 -23.816406 20.6875 -25.1875 20.6875 -27.5625 C 20.6875 -28.082031 20.6875 -28.460938 20.6875 -28.703125 C 20.6875 -28.941406 20.6875 -29.085938 20.6875 -29.140625 C 20.632812 -29.140625 20.609375 -29.164062 20.609375 -29.21875 C 20.554688 -29.269531 20.53125 -29.320312 20.53125 -29.375 C 20.476562 -29.375 20.4375 -29.375 20.40625 -29.375 C 20.382812 -29.375 20.347656 -29.375 20.296875 -29.375 L 18.484375 -30.171875 C 17.640625 -30.640625 16.898438 -31.347656 16.265625 -32.296875 C 15.953125 -33.035156 15.796875 -33.691406 15.796875 -34.265625 C 15.796875 -35.109375 15.898438 -35.742188 16.109375 -36.171875 C 17.160156 -38.222656 18.582031 -39.25 20.375 -39.25 C 21.269531 -39.25 22.164062 -38.957031 23.0625 -38.375 C 24.113281 -37.632812 24.953125 -36.609375 25.578125 -35.296875 C 25.691406 -35.191406 25.75 -35.0625 25.75 -34.90625 L 29.140625 -34.984375 C 29.296875 -35.035156 29.820312 -35.113281 30.71875 -35.21875 C 30.976562 -35.269531 31.28125 -35.304688 31.625 -35.328125 C 31.96875 -35.359375 32.347656 -35.375 32.765625 -35.375 C 33.085938 -35.425781 33.429688 -35.460938 33.796875 -35.484375 C 34.160156 -35.515625 34.53125 -35.53125 34.90625 -35.53125 L 35.859375 -35.53125 C 37.429688 -35.6875 38.457031 -35.765625 38.9375 -35.765625 C 39.300781 -35.828125 39.640625 -35.867188 39.953125 -35.890625 C 40.273438 -35.921875 40.59375 -35.9375 40.90625 -35.9375 L 43.203125 -36.015625 C 44.359375 -36.015625 45.195312 -35.539062 45.71875 -34.59375 C 46.09375 -34.0625 46.28125 -33.507812 46.28125 -32.9375 C 46.28125 -32.5625 46.144531 -32.054688 45.875 -31.421875 C 45.40625 -30.421875 44.484375 -29.867188 43.109375 -29.765625 C 42.429688 -29.710938 41.773438 -29.671875 41.140625 -29.640625 C 40.503906 -29.617188 39.925781 -29.554688 39.40625 -29.453125 C 39.039062 -29.453125 38.695312 -29.4375 38.375 -29.40625 C 38.0625 -29.382812 37.722656 -29.347656 37.359375 -29.296875 C 35.460938 -29.296875 34.117188 -29.21875 33.328125 -29.0625 C 33.003906 -29.0625 32.003906 -28.984375 30.328125 -28.828125 C 30.117188 -28.773438 29.851562 -28.75 29.53125 -28.75 C 29.425781 -28.75 29.304688 -28.75 29.171875 -28.75 C 29.046875 -28.75 28.90625 -28.75 28.75 -28.75 C 28.582031 -28.695312 28.445312 -28.671875 28.34375 -28.671875 C 28.238281 -28.671875 28.132812 -28.671875 28.03125 -28.671875 C 27.925781 -28.671875 27.832031 -28.671875 27.75 -28.671875 C 27.675781 -28.671875 27.585938 -28.671875 27.484375 -28.671875 C 27.378906 -28.617188 27.21875 -28.59375 27 -28.59375 L 27 -25.671875 C 27 -25.398438 27 -25.117188 27 -24.828125 C 27 -24.546875 26.972656 -24.242188 26.921875 -23.921875 C 26.867188 -23.609375 26.828125 -23.304688 26.796875 -23.015625 C 26.773438 -22.722656 26.710938 -22.445312 26.609375 -22.1875 L 26.21875 -20.53125 C 26.007812 -19.789062 25.820312 -19.15625 25.65625 -18.625 C 25.5 -18.101562 25.316406 -17.6875 25.109375 -17.375 L 24.875 -16.90625 C 23.976562 -15.113281 22.554688 -13.640625 20.609375 -12.484375 L 19.984375 -12.15625 C 19.660156 -11.945312 19.34375 -11.773438 19.03125 -11.640625 C 18.71875 -11.515625 18.398438 -11.398438 18.078125 -11.296875 L 17.6875 -11.21875 C 16.84375 -11 16.1875 -10.890625 15.71875 -10.890625 Z M 15.71875 -10.890625 "/></g></g></g><g fill="#ffffff" fill-opacity="1"><g transform="translate(63.948038, 59.867439)"><g><path d="M 39.40625 -7.03125 C 38.25 -7.03125 37.195312 -7.210938 36.25 -7.578125 L 35.859375 -7.734375 C 35.378906 -7.953125 34.90625 -8.242188 34.4375 -8.609375 L 32.765625 -10.03125 C 32.398438 -10.445312 32.03125 -10.941406 31.65625 -11.515625 C 31.289062 -12.097656 30.925781 -12.757812 30.5625 -13.5 L 29.84375 -16.03125 C 29.789062 -16.289062 29.75 -16.523438 29.71875 -16.734375 C 29.695312 -16.953125 29.6875 -17.164062 29.6875 -17.375 C 29.632812 -17.582031 29.609375 -17.925781 29.609375 -18.40625 C 29.554688 -18.5625 29.53125 -18.691406 29.53125 -18.796875 C 29.53125 -18.898438 29.53125 -18.976562 29.53125 -19.03125 L 29.453125 -19.109375 C 29.453125 -19.535156 29.425781 -20.023438 29.375 -20.578125 C 29.320312 -21.128906 29.242188 -21.742188 29.140625 -22.421875 C 28.929688 -23.796875 28.71875 -24.71875 28.5 -25.1875 C 28.394531 -25.71875 28.316406 -26.085938 28.265625 -26.296875 C 28.210938 -26.398438 28.171875 -26.503906 28.140625 -26.609375 C 28.117188 -26.710938 28.082031 -26.816406 28.03125 -26.921875 C 27.976562 -27.035156 27.953125 -27.144531 27.953125 -27.25 C 27.953125 -27.351562 27.925781 -27.429688 27.875 -27.484375 C 27.769531 -27.585938 27.71875 -27.691406 27.71875 -27.796875 C 27.507812 -28.378906 27.242188 -28.800781 26.921875 -29.0625 C 26.867188 -29.113281 26.84375 -29.148438 26.84375 -29.171875 C 26.84375 -29.203125 26.816406 -29.242188 26.765625 -29.296875 C 26.710938 -29.347656 26.671875 -29.398438 26.640625 -29.453125 C 26.617188 -29.503906 26.554688 -29.554688 26.453125 -29.609375 C 26.398438 -29.660156 26.304688 -29.722656 26.171875 -29.796875 C 26.046875 -29.878906 25.878906 -29.976562 25.671875 -30.09375 C 25.296875 -30.300781 24.898438 -30.40625 24.484375 -30.40625 C 24.273438 -30.40625 24.113281 -30.40625 24 -30.40625 C 23.894531 -30.40625 23.816406 -30.40625 23.765625 -30.40625 C 23.710938 -30.351562 23.609375 -30.328125 23.453125 -30.328125 C 23.296875 -30.328125 23.191406 -30.300781 23.140625 -30.25 C 23.035156 -30.195312 22.90625 -30.085938 22.75 -29.921875 C 22.6875 -29.867188 22.628906 -29.828125 22.578125 -29.796875 C 22.523438 -29.773438 22.5 -29.765625 22.5 -29.765625 C 22.445312 -29.710938 22.421875 -29.660156 22.421875 -29.609375 C 22.421875 -29.554688 22.394531 -29.503906 22.34375 -29.453125 C 22.289062 -29.398438 22.265625 -29.347656 22.265625 -29.296875 C 22.265625 -29.242188 22.238281 -29.191406 22.1875 -29.140625 C 22.082031 -29.035156 22.03125 -28.929688 22.03125 -28.828125 C 21.976562 -28.773438 21.953125 -28.722656 21.953125 -28.671875 C 21.953125 -28.617188 21.925781 -28.535156 21.875 -28.421875 C 21.820312 -28.265625 21.742188 -28.082031 21.640625 -27.875 C 21.585938 -27.769531 21.5625 -27.640625 21.5625 -27.484375 C 21.507812 -27.429688 21.484375 -27.269531 21.484375 -27 C 21.429688 -26.84375 21.40625 -26.6875 21.40625 -26.53125 C 21.351562 -26.476562 21.328125 -26.242188 21.328125 -25.828125 L 21.40625 -24.796875 C 21.40625 -24.585938 21.351562 -24.320312 21.25 -24 C 21.300781 -23.84375 21.328125 -23.109375 21.328125 -21.796875 C 21.378906 -21.535156 21.40625 -21.207031 21.40625 -20.8125 C 21.40625 -20.414062 21.40625 -19.925781 21.40625 -19.34375 C 21.457031 -19.1875 21.484375 -19.03125 21.484375 -18.875 C 21.484375 -18.71875 21.507812 -18.5625 21.5625 -18.40625 C 21.5625 -18.03125 21.585938 -17.816406 21.640625 -17.765625 C 21.640625 -17.710938 21.640625 -17.566406 21.640625 -17.328125 C 21.640625 -17.097656 21.640625 -16.769531 21.640625 -16.34375 C 21.640625 -15.03125 21.113281 -14.054688 20.0625 -13.421875 C 19.425781 -13.160156 18.898438 -13.03125 18.484375 -13.03125 C 18.054688 -13.03125 17.53125 -13.160156 16.90625 -13.421875 C 15.84375 -14.054688 15.3125 -15.054688 15.3125 -16.421875 L 15.15625 -18 C 15.15625 -18.425781 15.15625 -18.78125 15.15625 -19.0625 C 15.15625 -19.351562 15.15625 -19.550781 15.15625 -19.65625 C 15.101562 -19.769531 15.078125 -20.035156 15.078125 -20.453125 C 15.078125 -20.609375 15.078125 -20.789062 15.078125 -21 C 15.078125 -21.21875 15.050781 -21.429688 15 -21.640625 L 15 -23.0625 C 15 -24.007812 14.894531 -24.769531 14.6875 -25.34375 C 14.6875 -25.613281 14.554688 -26.007812 14.296875 -26.53125 C 14.296875 -27.0625 14.054688 -27.640625 13.578125 -28.265625 C 13.003906 -28.847656 12.582031 -29.164062 12.3125 -29.21875 C 12.15625 -29.21875 11.984375 -29.21875 11.796875 -29.21875 C 11.617188 -29.21875 11.425781 -29.21875 11.21875 -29.21875 C 10.789062 -29.21875 10.523438 -29.191406 10.421875 -29.140625 C 10.367188 -29.085938 10.316406 -29.046875 10.265625 -29.015625 C 10.210938 -28.992188 10.1875 -28.984375 10.1875 -28.984375 C 10.132812 -28.929688 10.082031 -28.90625 10.03125 -28.90625 C 9.976562 -28.851562 9.953125 -28.8125 9.953125 -28.78125 C 9.953125 -28.757812 9.925781 -28.722656 9.875 -28.671875 C 9.820312 -28.617188 9.769531 -28.535156 9.71875 -28.421875 C 9.664062 -28.316406 9.613281 -28.210938 9.5625 -28.109375 C 9.5 -28.003906 9.425781 -27.882812 9.34375 -27.75 C 9.269531 -27.625 9.179688 -27.507812 9.078125 -27.40625 L 8.84375 -26.6875 C 8.84375 -26.582031 8.816406 -26.367188 8.765625 -26.046875 C 8.710938 -25.734375 8.632812 -25.316406 8.53125 -24.796875 C 8.476562 -24.742188 8.453125 -24.613281 8.453125 -24.40625 C 8.453125 -24.351562 8.453125 -24.269531 8.453125 -24.15625 C 8.453125 -24.050781 8.453125 -23.945312 8.453125 -23.84375 C 8.398438 -23.6875 8.375 -22.738281 8.375 -21 C 8.425781 -20.789062 8.453125 -20.539062 8.453125 -20.25 C 8.453125 -19.96875 8.453125 -19.640625 8.453125 -19.265625 C 8.503906 -19.054688 8.53125 -18.804688 8.53125 -18.515625 C 8.53125 -18.222656 8.53125 -17.894531 8.53125 -17.53125 C 8.53125 -17.269531 8.554688 -17.0625 8.609375 -16.90625 C 8.609375 -16.789062 8.609375 -16.46875 8.609375 -15.9375 C 8.609375 -15.414062 8.609375 -14.707031 8.609375 -13.8125 C 8.609375 -12.707031 8.132812 -11.867188 7.1875 -11.296875 C 6.65625 -10.972656 6.128906 -10.8125 5.609375 -10.8125 C 5.179688 -10.8125 4.65625 -10.945312 4.03125 -11.21875 C 2.976562 -11.789062 2.425781 -12.765625 2.375 -14.140625 L 2.21875 -17.296875 C 2.21875 -17.984375 2.203125 -18.613281 2.171875 -19.1875 C 2.140625 -19.769531 2.097656 -20.269531 2.046875 -20.6875 C 2.046875 -21.164062 2.03125 -21.613281 2 -22.03125 C 1.976562 -22.445312 1.941406 -22.84375 1.890625 -23.21875 L 1.890625 -23.765625 C 1.890625 -24.035156 1.875 -24.285156 1.84375 -24.515625 C 1.820312 -24.753906 1.785156 -24.976562 1.734375 -25.1875 C 1.734375 -25.445312 1.71875 -25.671875 1.6875 -25.859375 C 1.664062 -26.046875 1.628906 -26.242188 1.578125 -26.453125 C 1.523438 -26.878906 1.5 -27.207031 1.5 -27.4375 C 1.5 -27.675781 1.472656 -27.847656 1.421875 -27.953125 C 1.367188 -28.109375 1.34375 -28.289062 1.34375 -28.5 C 1.289062 -28.613281 1.265625 -28.773438 1.265625 -28.984375 C 1.265625 -29.035156 1.265625 -29.097656 1.265625 -29.171875 C 1.265625 -29.253906 1.265625 -29.347656 1.265625 -29.453125 C 1.210938 -29.554688 1.1875 -29.769531 1.1875 -30.09375 C 1.082031 -30.40625 1.003906 -30.664062 0.953125 -30.875 L 0.796875 -32.53125 C 0.796875 -33.425781 1.109375 -34.191406 1.734375 -34.828125 C 2.316406 -35.398438 3.003906 -35.6875 3.796875 -35.6875 C 5.210938 -35.6875 6.160156 -35.160156 6.640625 -34.109375 C 7.003906 -34.484375 7.632812 -34.828125 8.53125 -35.140625 L 8.765625 -35.21875 C 9.023438 -35.320312 9.273438 -35.382812 9.515625 -35.40625 C 9.753906 -35.4375 9.976562 -35.476562 10.1875 -35.53125 C 10.394531 -35.582031 10.59375 -35.609375 10.78125 -35.609375 C 10.96875 -35.609375 11.140625 -35.609375 11.296875 -35.609375 C 12.398438 -35.609375 13.1875 -35.503906 13.65625 -35.296875 C 14.445312 -35.140625 15.160156 -34.90625 15.796875 -34.59375 C 16.421875 -34.21875 16.945312 -33.820312 17.375 -33.40625 C 17.53125 -33.613281 17.695312 -33.804688 17.875 -33.984375 C 18.0625 -34.171875 18.265625 -34.375 18.484375 -34.59375 C 20.210938 -36.007812 22.132812 -36.71875 24.25 -36.71875 C 26.144531 -36.71875 27.75 -36.269531 29.0625 -35.375 C 30.75 -34.632812 32.273438 -32.847656 33.640625 -30.015625 L 33.796875 -29.53125 C 34.054688 -28.84375 34.28125 -28.179688 34.46875 -27.546875 C 34.65625 -26.921875 34.800781 -26.296875 34.90625 -25.671875 L 35.0625 -25.03125 C 35.164062 -24.238281 35.28125 -23.410156 35.40625 -22.546875 C 35.539062 -21.679688 35.660156 -20.75 35.765625 -19.75 L 35.859375 -19.578125 C 35.859375 -19.523438 35.859375 -19.445312 35.859375 -19.34375 C 35.859375 -19.238281 35.882812 -19.132812 35.9375 -19.03125 C 35.9375 -18.875 35.9375 -18.71875 35.9375 -18.5625 C 35.9375 -18.40625 35.9375 -18.242188 35.9375 -18.078125 C 35.9375 -17.816406 36.015625 -17.398438 36.171875 -16.828125 L 36.484375 -15.796875 C 36.585938 -15.691406 36.675781 -15.554688 36.75 -15.390625 C 36.832031 -15.234375 36.898438 -15.078125 36.953125 -14.921875 C 37.109375 -14.554688 37.296875 -14.347656 37.515625 -14.296875 C 37.722656 -14.085938 37.878906 -13.957031 37.984375 -13.90625 C 38.085938 -13.84375 38.175781 -13.785156 38.25 -13.734375 C 38.332031 -13.679688 38.398438 -13.628906 38.453125 -13.578125 C 38.554688 -13.472656 38.664062 -13.421875 38.78125 -13.421875 C 38.882812 -13.421875 38.960938 -13.394531 39.015625 -13.34375 L 40.359375 -13.34375 C 40.773438 -13.445312 41.0625 -13.523438 41.21875 -13.578125 C 41.476562 -13.578125 41.796875 -13.65625 42.171875 -13.8125 C 42.378906 -13.875 42.5625 -13.957031 42.71875 -14.0625 C 42.875 -14.164062 43.035156 -14.269531 43.203125 -14.375 C 43.359375 -14.53125 43.832031 -14.875 44.625 -15.40625 L 45.484375 -16.1875 C 46.066406 -16.820312 46.460938 -17.296875 46.671875 -17.609375 C 46.773438 -17.765625 46.945312 -18.039062 47.1875 -18.4375 C 47.425781 -18.832031 47.726562 -19.320312 48.09375 -19.90625 L 48.328125 -20.21875 C 48.429688 -20.375 48.5625 -20.554688 48.71875 -20.765625 C 48.875 -20.972656 49.007812 -21.1875 49.125 -21.40625 C 49.332031 -21.769531 49.488281 -22.132812 49.59375 -22.5 C 49.644531 -22.601562 49.707031 -22.734375 49.78125 -22.890625 C 49.863281 -23.054688 49.929688 -23.242188 49.984375 -23.453125 C 50.140625 -23.765625 50.269531 -23.972656 50.375 -24.078125 C 50.4375 -24.140625 50.519531 -24.328125 50.625 -24.640625 C 50.726562 -24.953125 50.78125 -25.160156 50.78125 -25.265625 C 51.351562 -26.640625 52.378906 -27.351562 53.859375 -27.40625 C 54.960938 -27.40625 55.78125 -26.984375 56.3125 -26.140625 C 56.726562 -25.554688 56.9375 -24.976562 56.9375 -24.40625 C 56.9375 -23.925781 56.804688 -23.375 56.546875 -22.75 C 56.546875 -22.6875 56.53125 -22.613281 56.5 -22.53125 C 56.476562 -22.457031 56.441406 -22.34375 56.390625 -22.1875 C 56.335938 -22.03125 56.28125 -21.898438 56.21875 -21.796875 C 56.164062 -21.691406 56.113281 -21.585938 56.0625 -21.484375 L 55.671875 -20.609375 C 55.617188 -20.453125 55.566406 -20.320312 55.515625 -20.21875 C 55.460938 -20.113281 55.410156 -20.007812 55.359375 -19.90625 C 54.984375 -18.957031 54.40625 -17.898438 53.625 -16.734375 C 53.519531 -16.628906 53.410156 -16.5 53.296875 -16.34375 C 53.191406 -16.1875 53.085938 -16.003906 52.984375 -15.796875 C 52.460938 -15.054688 52.003906 -14.394531 51.609375 -13.8125 C 51.210938 -13.238281 50.832031 -12.738281 50.46875 -12.3125 C 49.726562 -11.425781 49.039062 -10.769531 48.40625 -10.34375 L 48.015625 -10.03125 C 47.753906 -9.820312 47.460938 -9.597656 47.140625 -9.359375 C 46.828125 -9.117188 46.457031 -8.894531 46.03125 -8.6875 C 45.25 -8.207031 44.304688 -7.8125 43.203125 -7.5 L 42.71875 -7.34375 C 42.40625 -7.289062 42.101562 -7.265625 41.8125 -7.265625 C 41.519531 -7.265625 41.242188 -7.238281 40.984375 -7.1875 C 40.722656 -7.132812 40.457031 -7.09375 40.1875 -7.0625 C 39.925781 -7.039062 39.664062 -7.03125 39.40625 -7.03125 Z M 39.40625 -7.03125 "/></g></g></g><g fill="#ffffff" fill-opacity="1"><g transform="translate(114.487031, 59.867439)"><g><path d="M 13.578125 -10.265625 L 12 -10.5 L 11.453125 -10.65625 C 10.765625 -10.8125 10.265625 -10.972656 9.953125 -11.140625 C 9.742188 -11.242188 9.554688 -11.320312 9.390625 -11.375 C 9.234375 -11.425781 9.101562 -11.476562 9 -11.53125 C 8.050781 -12.050781 7.179688 -12.65625 6.390625 -13.34375 L 5.84375 -13.8125 C 5.632812 -14.082031 5.4375 -14.320312 5.25 -14.53125 C 5.0625 -14.738281 4.914062 -14.945312 4.8125 -15.15625 C 4.445312 -15.53125 4.238281 -15.847656 4.1875 -16.109375 L 3.46875 -17.296875 C 3.207031 -17.984375 2.945312 -18.5625 2.6875 -19.03125 C 2.53125 -19.5625 2.316406 -20.164062 2.046875 -20.84375 L 1.265625 -24.484375 C 1.210938 -24.796875 1.171875 -25.082031 1.140625 -25.34375 C 1.117188 -25.613281 1.109375 -25.851562 1.109375 -26.0625 C 1.109375 -26.269531 1.109375 -26.453125 1.109375 -26.609375 C 1.109375 -26.765625 1.109375 -26.894531 1.109375 -27 C 1.054688 -27.164062 1.03125 -29.0625 1.03125 -32.6875 C 1.03125 -33.851562 1.367188 -34.695312 2.046875 -35.21875 C 2.734375 -35.800781 3.445312 -36.09375 4.1875 -36.09375 C 5.03125 -36.09375 5.789062 -35.800781 6.46875 -35.21875 C 7.050781 -34.632812 7.34375 -33.789062 7.34375 -32.6875 C 7.34375 -29.164062 7.367188 -27.351562 7.421875 -27.25 C 7.421875 -27.144531 7.421875 -27.035156 7.421875 -26.921875 C 7.421875 -26.816406 7.421875 -26.710938 7.421875 -26.609375 C 7.421875 -26.347656 7.445312 -26.164062 7.5 -26.0625 C 7.5 -25.738281 7.523438 -25.472656 7.578125 -25.265625 C 7.628906 -25.109375 7.65625 -24.925781 7.65625 -24.71875 C 7.65625 -24.507812 7.679688 -24.269531 7.734375 -24 L 7.8125 -23.6875 C 7.914062 -23.375 8.007812 -23.082031 8.09375 -22.8125 C 8.175781 -22.550781 8.269531 -22.289062 8.375 -22.03125 L 9.15625 -19.984375 C 9.257812 -19.878906 9.335938 -19.769531 9.390625 -19.65625 C 9.503906 -19.445312 9.664062 -19.238281 9.875 -19.03125 C 10.03125 -18.664062 10.34375 -18.296875 10.8125 -17.921875 C 10.976562 -17.816406 11.164062 -17.710938 11.375 -17.609375 C 11.476562 -17.554688 11.582031 -17.488281 11.6875 -17.40625 C 11.789062 -17.332031 11.867188 -17.269531 11.921875 -17.21875 C 12.023438 -17.164062 12.238281 -17.085938 12.5625 -16.984375 C 12.664062 -16.929688 12.796875 -16.890625 12.953125 -16.859375 C 13.109375 -16.835938 13.238281 -16.769531 13.34375 -16.65625 L 14.375 -16.578125 C 14.53125 -16.628906 14.6875 -16.679688 14.84375 -16.734375 C 15 -16.796875 15.128906 -16.851562 15.234375 -16.90625 C 15.398438 -16.957031 15.5625 -17.0625 15.71875 -17.21875 C 15.925781 -17.320312 16.09375 -17.4375 16.21875 -17.5625 C 16.351562 -17.695312 16.472656 -17.816406 16.578125 -17.921875 L 16.734375 -18.078125 C 17.109375 -18.347656 17.476562 -18.742188 17.84375 -19.265625 L 19.1875 -21.078125 C 19.34375 -21.347656 19.5 -21.570312 19.65625 -21.75 C 19.820312 -21.9375 19.957031 -22.132812 20.0625 -22.34375 C 20.164062 -22.550781 20.269531 -22.722656 20.375 -22.859375 C 20.476562 -22.992188 20.554688 -23.113281 20.609375 -23.21875 C 20.660156 -23.375 20.738281 -23.554688 20.84375 -23.765625 C 20.945312 -23.972656 21.050781 -24.15625 21.15625 -24.3125 C 21.269531 -24.476562 21.351562 -24.613281 21.40625 -24.71875 C 21.457031 -24.875 21.585938 -25.109375 21.796875 -25.421875 C 21.847656 -25.523438 21.925781 -25.679688 22.03125 -25.890625 C 22.132812 -26.109375 22.238281 -26.320312 22.34375 -26.53125 C 22.445312 -26.738281 22.601562 -27.015625 22.8125 -27.359375 C 23.03125 -27.703125 23.269531 -28.113281 23.53125 -28.59375 L 24.078125 -29.453125 C 24.816406 -30.503906 25.765625 -31.03125 26.921875 -31.03125 C 27.347656 -31.03125 27.664062 -30.953125 27.875 -30.796875 C 29.300781 -30.273438 30.015625 -29.328125 30.015625 -27.953125 C 30.015625 -27.109375 29.59375 -26.109375 28.75 -24.953125 C 28.476562 -24.585938 28.160156 -24.0625 27.796875 -23.375 L 27.09375 -22.03125 C 27.03125 -21.820312 26.929688 -21.597656 26.796875 -21.359375 C 26.671875 -21.117188 26.554688 -20.867188 26.453125 -20.609375 C 26.296875 -20.398438 26.164062 -20.1875 26.0625 -19.96875 C 25.957031 -19.757812 25.851562 -19.601562 25.75 -19.5 L 25.578125 -19.34375 C 25.367188 -18.769531 24.898438 -18.035156 24.171875 -17.140625 C 23.796875 -16.710938 23.515625 -16.367188 23.328125 -16.109375 C 23.148438 -15.847656 23.035156 -15.691406 22.984375 -15.640625 C 22.878906 -15.421875 22.800781 -15.285156 22.75 -15.234375 C 21.800781 -14.078125 20.828125 -13.101562 19.828125 -12.3125 C 18.828125 -11.53125 17.90625 -11.03125 17.0625 -10.8125 L 16.828125 -10.734375 C 15.878906 -10.421875 14.796875 -10.265625 13.578125 -10.265625 Z M 4.421875 -38.453125 C 3.734375 -38.453125 3.101562 -38.5625 2.53125 -38.78125 C 1.375 -39.144531 0.796875 -40.035156 0.796875 -41.453125 L 0.953125 -43.4375 C 1.421875 -45.164062 2.472656 -46.03125 4.109375 -46.03125 C 5.054688 -46.03125 5.84375 -45.664062 6.46875 -44.9375 C 7 -44.40625 7.265625 -43.71875 7.265625 -42.875 L 7.109375 -41.53125 C 7.109375 -40.75 6.765625 -40.015625 6.078125 -39.328125 C 5.554688 -38.796875 5.003906 -38.503906 4.421875 -38.453125 Z M 4.421875 -38.453125 "/></g></g></g><g fill="#ffffff" fill-opacity="1"><g transform="translate(138.177186, 59.867439)"><g><path d="M 28.34375 -7.109375 C 26.71875 -7.109375 25.378906 -7.34375 24.328125 -7.8125 C 23.328125 -8.1875 22.40625 -8.847656 21.5625 -9.796875 L 20.84375 -10.5 C 20.53125 -10.925781 20.253906 -11.347656 20.015625 -11.765625 C 19.773438 -12.179688 19.578125 -12.578125 19.421875 -12.953125 C 19.160156 -13.585938 18.898438 -14.347656 18.640625 -15.234375 L 18.40625 -16.109375 L 18.078125 -17.765625 C 18.023438 -18.140625 17.984375 -18.46875 17.953125 -18.75 C 17.929688 -19.039062 17.867188 -19.289062 17.765625 -19.5 C 17.660156 -20.1875 17.554688 -20.6875 17.453125 -21 C 17.347656 -21.632812 17.269531 -22.054688 17.21875 -22.265625 C 17.113281 -22.585938 17.0625 -22.75 17.0625 -22.75 L 16.734375 -23.609375 C 16.421875 -24.398438 16.109375 -25.054688 15.796875 -25.578125 L 15.71875 -25.671875 C 15.5625 -25.984375 15.347656 -26.269531 15.078125 -26.53125 C 14.921875 -26.84375 14.6875 -27.160156 14.375 -27.484375 C 13.945312 -27.796875 13.523438 -28.03125 13.109375 -28.1875 C 12.421875 -28.507812 11.816406 -28.671875 11.296875 -28.671875 C 11.191406 -28.671875 11.113281 -28.695312 11.0625 -28.75 C 10.945312 -28.800781 10.628906 -28.828125 10.109375 -28.828125 C 9.578125 -28.828125 9.257812 -28.800781 9.15625 -28.75 C 9 -28.695312 8.816406 -28.613281 8.609375 -28.5 C 8.398438 -28.445312 8.242188 -28.367188 8.140625 -28.265625 C 8.085938 -28.210938 8.046875 -28.171875 8.015625 -28.140625 C 7.984375 -28.117188 7.941406 -28.082031 7.890625 -28.03125 C 7.835938 -27.976562 7.8125 -27.9375 7.8125 -27.90625 C 7.8125 -27.882812 7.785156 -27.847656 7.734375 -27.796875 C 7.679688 -27.742188 7.65625 -27.703125 7.65625 -27.671875 C 7.65625 -27.648438 7.65625 -27.640625 7.65625 -27.640625 C 7.601562 -27.585938 7.578125 -27.535156 7.578125 -27.484375 L 7.5 -26.921875 C 7.5 -26.453125 7.523438 -26.140625 7.578125 -25.984375 C 7.578125 -25.878906 7.578125 -25.757812 7.578125 -25.625 C 7.578125 -25.488281 7.578125 -25.367188 7.578125 -25.265625 C 7.578125 -25.160156 7.578125 -25.03125 7.578125 -24.875 C 7.578125 -24.71875 7.601562 -24.585938 7.65625 -24.484375 C 7.65625 -24.378906 7.65625 -24.101562 7.65625 -23.65625 C 7.65625 -23.207031 7.65625 -22.613281 7.65625 -21.875 C 7.707031 -21.664062 7.734375 -21.269531 7.734375 -20.6875 C 7.734375 -20.113281 7.734375 -19.378906 7.734375 -18.484375 C 7.785156 -18.265625 7.8125 -17.945312 7.8125 -17.53125 C 7.8125 -17.113281 7.8125 -16.585938 7.8125 -15.953125 L 7.890625 -14.140625 C 7.890625 -13.035156 7.441406 -12.164062 6.546875 -11.53125 C 6.023438 -11.164062 5.421875 -10.984375 4.734375 -10.984375 C 4.316406 -10.984375 3.894531 -11.0625 3.46875 -11.21875 C 2.363281 -11.6875 1.734375 -12.632812 1.578125 -14.0625 C 1.578125 -14.164062 1.578125 -14.269531 1.578125 -14.375 C 1.578125 -14.476562 1.578125 -14.554688 1.578125 -14.609375 C 1.523438 -14.660156 1.5 -15.054688 1.5 -15.796875 C 1.5 -16.484375 1.5 -17.019531 1.5 -17.40625 C 1.5 -17.800781 1.472656 -18.109375 1.421875 -18.328125 C 1.421875 -19.210938 1.421875 -19.945312 1.421875 -20.53125 C 1.421875 -21.113281 1.394531 -21.507812 1.34375 -21.71875 C 1.34375 -22.457031 1.34375 -23.035156 1.34375 -23.453125 C 1.34375 -23.867188 1.34375 -24.132812 1.34375 -24.25 C 1.289062 -24.351562 1.265625 -24.457031 1.265625 -24.5625 C 1.265625 -24.664062 1.265625 -24.742188 1.265625 -24.796875 C 1.265625 -25.210938 1.265625 -25.578125 1.265625 -25.890625 C 1.265625 -26.210938 1.238281 -26.476562 1.1875 -26.6875 C 1.132812 -26.789062 1.109375 -27.03125 1.109375 -27.40625 C 1.109375 -27.769531 1.109375 -28.054688 1.109375 -28.265625 C 1.109375 -28.484375 1.109375 -28.644531 1.109375 -28.75 C 1.054688 -28.851562 1.03125 -29.21875 1.03125 -29.84375 C 1.03125 -30.113281 1.03125 -30.335938 1.03125 -30.515625 C 1.03125 -30.703125 1.03125 -30.820312 1.03125 -30.875 C 0.976562 -30.976562 0.953125 -31.296875 0.953125 -31.828125 C 0.953125 -32.296875 0.925781 -32.609375 0.875 -32.765625 C 0.820312 -32.878906 0.796875 -33.09375 0.796875 -33.40625 C 0.796875 -34.25 1.03125 -34.929688 1.5 -35.453125 C 2.238281 -36.191406 3.054688 -36.5625 3.953125 -36.5625 C 5.367188 -36.5625 6.34375 -35.90625 6.875 -34.59375 L 7.03125 -34.671875 C 7.925781 -34.984375 9.109375 -35.140625 10.578125 -35.140625 C 11.367188 -35.140625 12.238281 -35.007812 13.1875 -34.75 L 13.8125 -34.59375 C 14.082031 -34.539062 14.359375 -34.484375 14.640625 -34.421875 C 14.929688 -34.367188 15.210938 -34.289062 15.484375 -34.1875 C 16.003906 -33.976562 16.609375 -33.613281 17.296875 -33.09375 C 17.765625 -32.875 18.238281 -32.476562 18.71875 -31.90625 C 19.082031 -31.644531 19.503906 -31.195312 19.984375 -30.5625 C 20.347656 -30.300781 20.6875 -29.828125 21 -29.140625 C 21.269531 -28.828125 21.507812 -28.429688 21.71875 -27.953125 L 21.875 -27.5625 C 22.1875 -27.082031 22.421875 -26.53125 22.578125 -25.90625 C 22.796875 -25.53125 22.96875 -25.101562 23.09375 -24.625 C 23.226562 -24.15625 23.347656 -23.632812 23.453125 -23.0625 C 23.503906 -22.957031 23.539062 -22.835938 23.5625 -22.703125 C 23.59375 -22.566406 23.632812 -22.445312 23.6875 -22.34375 C 23.738281 -22.238281 23.765625 -22.109375 23.765625 -21.953125 C 23.765625 -21.796875 23.789062 -21.640625 23.84375 -21.484375 C 23.894531 -21.328125 23.921875 -21.179688 23.921875 -21.046875 C 23.921875 -20.910156 23.945312 -20.789062 24 -20.6875 C 24.113281 -20.425781 24.273438 -19.609375 24.484375 -18.234375 C 24.484375 -17.921875 24.507812 -17.710938 24.5625 -17.609375 C 24.5625 -17.398438 24.585938 -17.269531 24.640625 -17.21875 C 24.691406 -16.6875 24.875 -16.1875 25.1875 -15.71875 C 25.289062 -15.507812 25.394531 -15.320312 25.5 -15.15625 C 25.550781 -15.050781 25.617188 -14.929688 25.703125 -14.796875 C 25.785156 -14.671875 25.851562 -14.503906 25.90625 -14.296875 C 25.957031 -14.296875 26.035156 -14.242188 26.140625 -14.140625 C 26.140625 -14.035156 26.191406 -13.984375 26.296875 -13.984375 C 26.347656 -13.929688 26.375 -13.90625 26.375 -13.90625 C 26.375 -13.90625 26.398438 -13.875 26.453125 -13.8125 C 26.554688 -13.707031 26.660156 -13.628906 26.765625 -13.578125 C 26.867188 -13.523438 27.003906 -13.5 27.171875 -13.5 C 27.222656 -13.445312 27.40625 -13.421875 27.71875 -13.421875 C 28.1875 -13.421875 28.476562 -13.445312 28.59375 -13.5 C 28.695312 -13.550781 28.773438 -13.578125 28.828125 -13.578125 C 28.878906 -13.578125 28.929688 -13.601562 28.984375 -13.65625 C 29.609375 -13.707031 30.554688 -14.078125 31.828125 -14.765625 L 33.015625 -15.640625 C 33.847656 -16.367188 34.375 -16.921875 34.59375 -17.296875 L 35.859375 -18.796875 C 36.328125 -19.210938 36.851562 -19.945312 37.4375 -21 L 38.296875 -22.265625 C 38.398438 -22.367188 38.546875 -22.601562 38.734375 -22.96875 C 38.921875 -23.34375 39.144531 -23.796875 39.40625 -24.328125 L 39.796875 -25.109375 C 40.429688 -26.742188 41.429688 -27.5625 42.796875 -27.5625 L 43.03125 -27.5625 C 44.25 -27.5625 45.117188 -27.085938 45.640625 -26.140625 C 46.015625 -25.710938 46.203125 -25.1875 46.203125 -24.5625 C 46.203125 -24.03125 46.039062 -23.453125 45.71875 -22.828125 C 45.664062 -22.773438 45.640625 -22.707031 45.640625 -22.625 C 45.640625 -22.539062 45.613281 -22.472656 45.5625 -22.421875 C 45.457031 -22.210938 45.40625 -22.109375 45.40625 -22.109375 C 45.351562 -22.054688 45.285156 -21.960938 45.203125 -21.828125 C 45.128906 -21.703125 45.039062 -21.535156 44.9375 -21.328125 L 44.78125 -21 C 44.40625 -20.164062 44.007812 -19.457031 43.59375 -18.875 C 43.488281 -18.71875 43.394531 -18.554688 43.3125 -18.390625 C 43.238281 -18.234375 43.144531 -18.078125 43.03125 -17.921875 C 42.925781 -17.710938 42.820312 -17.53125 42.71875 -17.375 C 42.613281 -17.21875 42.507812 -17.085938 42.40625 -16.984375 C 42.300781 -16.816406 42.195312 -16.65625 42.09375 -16.5 C 41.988281 -16.34375 41.882812 -16.210938 41.78125 -16.109375 C 41.664062 -15.953125 41.554688 -15.804688 41.453125 -15.671875 C 41.347656 -15.546875 41.242188 -15.425781 41.140625 -15.3125 C 40.453125 -14.476562 39.976562 -13.847656 39.71875 -13.421875 C 39.5625 -13.210938 39.429688 -13.054688 39.328125 -12.953125 C 39.222656 -12.847656 39.144531 -12.769531 39.09375 -12.71875 C 38.988281 -12.664062 38.882812 -12.585938 38.78125 -12.484375 C 38.5625 -12.265625 38.359375 -12.050781 38.171875 -11.84375 C 37.992188 -11.632812 37.800781 -11.425781 37.59375 -11.21875 C 36.75 -10.53125 36.113281 -10.054688 35.6875 -9.796875 C 35.007812 -9.367188 34.394531 -9 33.84375 -8.6875 C 33.289062 -8.375 32.773438 -8.132812 32.296875 -7.96875 L 30.328125 -7.421875 C 29.484375 -7.210938 28.820312 -7.109375 28.34375 -7.109375 Z M 28.34375 -7.109375 "/></g></g></g><g clip-path="url(#c2308126ed)"><g fill="#ffffff" fill-opacity="1"><g transform="translate(177.976647, 59.867439)"><g><path d="M 11.53125 -18.15625 C 11.6875 -18.207031 11.867188 -18.289062 12.078125 -18.40625 C 12.179688 -18.40625 12.34375 -18.457031 12.5625 -18.5625 C 12.613281 -18.613281 12.742188 -18.691406 12.953125 -18.796875 C 13.054688 -18.847656 13.171875 -18.910156 13.296875 -18.984375 C 13.429688 -19.066406 13.601562 -19.1875 13.8125 -19.34375 C 14.238281 -19.613281 14.710938 -20.164062 15.234375 -21 C 15.347656 -21.164062 15.441406 -21.328125 15.515625 -21.484375 C 15.597656 -21.640625 15.664062 -21.769531 15.71875 -21.875 C 15.820312 -22.1875 15.898438 -22.445312 15.953125 -22.65625 C 16.265625 -23.925781 16.421875 -24.742188 16.421875 -25.109375 C 16.421875 -25.316406 16.445312 -25.503906 16.5 -25.671875 C 16.5 -25.773438 16.5 -25.941406 16.5 -26.171875 C 16.5 -26.410156 16.5 -26.71875 16.5 -27.09375 C 16.5 -27.351562 16.5 -27.535156 16.5 -27.640625 C 16.5 -27.742188 16.5 -27.820312 16.5 -27.875 C 16.445312 -27.875 16.394531 -27.898438 16.34375 -27.953125 C 16.289062 -28.003906 16.265625 -28.03125 16.265625 -28.03125 C 16.265625 -28.03125 16.238281 -28.054688 16.1875 -28.109375 C 16.082031 -28.210938 16.03125 -28.289062 16.03125 -28.34375 C 15.976562 -28.394531 15.9375 -28.429688 15.90625 -28.453125 C 15.882812 -28.484375 15.847656 -28.53125 15.796875 -28.59375 C 15.691406 -28.644531 15.53125 -28.671875 15.3125 -28.671875 C 15.207031 -28.773438 15.023438 -28.828125 14.765625 -28.828125 C 14.710938 -28.984375 14.453125 -29.0625 13.984375 -29.0625 C 13.929688 -29.113281 13.585938 -29.140625 12.953125 -29.140625 C 12.742188 -29.140625 12.519531 -29.125 12.28125 -29.09375 C 12.039062 -29.070312 11.789062 -29.035156 11.53125 -28.984375 C 10.738281 -28.984375 9.710938 -28.351562 8.453125 -27.09375 C 8.128906 -26.664062 7.890625 -26.242188 7.734375 -25.828125 C 7.679688 -25.773438 7.65625 -25.71875 7.65625 -25.65625 C 7.65625 -25.601562 7.628906 -25.550781 7.578125 -25.5 C 7.523438 -25.445312 7.5 -25.316406 7.5 -25.109375 C 7.445312 -25.054688 7.421875 -24.976562 7.421875 -24.875 C 7.421875 -24.769531 7.394531 -24.664062 7.34375 -24.5625 C 7.289062 -24.457031 7.265625 -24.320312 7.265625 -24.15625 C 7.265625 -24 7.238281 -23.867188 7.1875 -23.765625 C 7.132812 -23.609375 7.109375 -23.160156 7.109375 -22.421875 C 7.210938 -22.109375 7.265625 -21.769531 7.265625 -21.40625 C 7.265625 -21.300781 7.289062 -21.191406 7.34375 -21.078125 C 7.445312 -20.867188 7.523438 -20.6875 7.578125 -20.53125 C 7.679688 -20.320312 7.757812 -20.164062 7.8125 -20.0625 C 7.914062 -19.851562 8 -19.71875 8.0625 -19.65625 C 8.113281 -19.550781 8.191406 -19.445312 8.296875 -19.34375 C 8.347656 -19.289062 8.382812 -19.238281 8.40625 -19.1875 C 8.4375 -19.132812 8.476562 -19.082031 8.53125 -19.03125 C 8.582031 -18.976562 8.644531 -18.925781 8.71875 -18.875 C 8.800781 -18.820312 8.867188 -18.742188 8.921875 -18.640625 C 9.078125 -18.640625 9.257812 -18.5625 9.46875 -18.40625 C 9.84375 -18.40625 10.210938 -18.320312 10.578125 -18.15625 Z M 30.09375 -11.21875 L 28.34375 -11.21875 C 28.238281 -11.269531 28.109375 -11.296875 27.953125 -11.296875 C 27.796875 -11.296875 27.640625 -11.320312 27.484375 -11.375 C 27.054688 -11.476562 26.765625 -11.554688 26.609375 -11.609375 C 26.503906 -11.660156 26.375 -11.710938 26.21875 -11.765625 C 26.0625 -11.816406 25.929688 -11.867188 25.828125 -11.921875 C 25.660156 -11.972656 25.5 -12.023438 25.34375 -12.078125 C 25.1875 -12.128906 25.054688 -12.179688 24.953125 -12.234375 C 24.429688 -12.503906 23.878906 -12.875 23.296875 -13.34375 C 23.035156 -13.550781 22.785156 -13.75 22.546875 -13.9375 C 22.304688 -14.125 22.054688 -14.320312 21.796875 -14.53125 C 21.265625 -14.945312 20.894531 -15.34375 20.6875 -15.71875 C 20.582031 -15.925781 20.453125 -16.109375 20.296875 -16.265625 C 20.140625 -16.421875 20.007812 -16.550781 19.90625 -16.65625 L 19.1875 -15.796875 C 18.820312 -15.421875 18.476562 -15.078125 18.15625 -14.765625 C 17.84375 -14.453125 17.503906 -14.164062 17.140625 -13.90625 L 15.71875 -13.03125 C 15.082031 -12.769531 14.488281 -12.546875 13.9375 -12.359375 C 13.382812 -12.171875 12.84375 -12.023438 12.3125 -11.921875 L 10.578125 -11.84375 C 9.523438 -11.84375 8.550781 -12.023438 7.65625 -12.390625 C 6.238281 -12.972656 5.289062 -13.476562 4.8125 -13.90625 L 3.875 -14.609375 L 2.53125 -16.34375 L 2.046875 -17.296875 C 1.578125 -18.296875 1.265625 -19.191406 1.109375 -19.984375 L 0.796875 -22.109375 L 0.875 -24 C 0.925781 -24.425781 0.976562 -24.796875 1.03125 -25.109375 C 1.082031 -25.421875 1.132812 -25.710938 1.1875 -25.984375 C 1.238281 -26.398438 1.367188 -26.847656 1.578125 -27.328125 L 1.734375 -27.796875 L 2.53125 -29.609375 L 3.71875 -31.265625 C 4.289062 -31.898438 4.828125 -32.414062 5.328125 -32.8125 C 5.828125 -33.207031 6.265625 -33.507812 6.640625 -33.71875 C 8.160156 -34.613281 9.367188 -35.085938 10.265625 -35.140625 L 10.65625 -35.21875 C 11.238281 -35.375 11.6875 -35.453125 12 -35.453125 L 13.734375 -35.453125 C 14.421875 -35.453125 14.945312 -35.375 15.3125 -35.21875 C 16 -35.113281 16.445312 -35.007812 16.65625 -34.90625 C 17.34375 -34.75 17.789062 -34.5625 18 -34.34375 C 18.53125 -34.1875 18.976562 -34.003906 19.34375 -33.796875 C 19.769531 -33.585938 20.085938 -33.351562 20.296875 -33.09375 C 20.398438 -32.988281 20.476562 -32.894531 20.53125 -32.8125 C 20.582031 -32.726562 20.632812 -32.660156 20.6875 -32.609375 C 20.738281 -32.554688 20.773438 -32.515625 20.796875 -32.484375 C 20.828125 -32.460938 20.867188 -32.425781 20.921875 -32.375 C 21.023438 -32.269531 21.078125 -32.164062 21.078125 -32.0625 C 21.867188 -31.375 22.265625 -30.554688 22.265625 -29.609375 C 22.640625 -29.191406 22.828125 -28.507812 22.828125 -27.5625 C 22.984375 -27.351562 23.0625 -27.085938 23.0625 -26.765625 C 23.21875 -26.398438 23.296875 -26.113281 23.296875 -25.90625 C 23.296875 -25.75 23.320312 -25.640625 23.375 -25.578125 C 23.375 -25.421875 23.398438 -25.289062 23.453125 -25.1875 C 23.453125 -25.03125 23.476562 -24.925781 23.53125 -24.875 C 23.53125 -24.820312 23.53125 -24.78125 23.53125 -24.75 C 23.53125 -24.726562 23.53125 -24.691406 23.53125 -24.640625 L 24 -22.5 L 24.71875 -21 C 24.769531 -20.894531 24.820312 -20.800781 24.875 -20.71875 C 24.925781 -20.644531 24.976562 -20.554688 25.03125 -20.453125 C 25.082031 -20.347656 25.476562 -19.847656 26.21875 -18.953125 C 26.375 -18.796875 26.53125 -18.664062 26.6875 -18.5625 C 26.894531 -18.34375 27.082031 -18.207031 27.25 -18.15625 C 27.40625 -18.101562 27.585938 -18.023438 27.796875 -17.921875 C 27.898438 -17.867188 28.003906 -17.828125 28.109375 -17.796875 C 28.210938 -17.773438 28.34375 -17.710938 28.5 -17.609375 L 29.453125 -17.53125 C 29.929688 -17.53125 30.195312 -17.554688 30.25 -17.609375 L 30.328125 -17.609375 C 30.953125 -17.765625 31.820312 -18.238281 32.9375 -19.03125 C 33.144531 -19.132812 33.363281 -19.304688 33.59375 -19.546875 C 33.832031 -19.785156 34.082031 -20.035156 34.34375 -20.296875 C 34.507812 -20.453125 34.65625 -20.59375 34.78125 -20.71875 C 34.914062 -20.851562 35.007812 -20.945312 35.0625 -21 C 35.113281 -21.101562 35.269531 -21.289062 35.53125 -21.5625 C 35.632812 -21.664062 35.726562 -21.769531 35.8125 -21.875 C 35.894531 -21.976562 35.960938 -22.082031 36.015625 -22.1875 C 36.066406 -22.289062 36.117188 -22.351562 36.171875 -22.375 C 36.222656 -22.40625 36.273438 -22.445312 36.328125 -22.5 C 36.378906 -22.5 36.640625 -22.84375 37.109375 -23.53125 C 37.378906 -23.789062 37.617188 -24.132812 37.828125 -24.5625 L 37.984375 -24.71875 C 38.140625 -24.875 38.296875 -25.039062 38.453125 -25.21875 C 38.609375 -25.40625 38.769531 -25.609375 38.9375 -25.828125 C 39.09375 -26.035156 39.273438 -26.242188 39.484375 -26.453125 C 39.691406 -26.660156 39.898438 -26.875 40.109375 -27.09375 C 40.328125 -27.25 40.4375 -27.378906 40.4375 -27.484375 C 41.332031 -28.273438 42.195312 -28.671875 43.03125 -28.671875 C 43.5625 -28.671875 43.984375 -28.507812 44.296875 -28.1875 C 44.878906 -27.875 45.328125 -27.507812 45.640625 -27.09375 C 45.960938 -26.613281 46.125 -26.109375 46.125 -25.578125 C 46.125 -24.640625 45.753906 -23.800781 45.015625 -23.0625 C 44.804688 -22.851562 44.59375 -22.640625 44.375 -22.421875 C 44.164062 -22.210938 44.007812 -22.003906 43.90625 -21.796875 C 43.75 -21.585938 43.601562 -21.414062 43.46875 -21.28125 C 43.34375 -21.144531 43.222656 -21.023438 43.109375 -20.921875 C 43.003906 -20.816406 42.882812 -20.6875 42.75 -20.53125 C 42.625 -20.375 42.507812 -20.21875 42.40625 -20.0625 L 42.09375 -19.65625 C 41.5625 -18.976562 41.242188 -18.585938 41.140625 -18.484375 C 41.085938 -18.429688 41.007812 -18.335938 40.90625 -18.203125 C 40.800781 -18.066406 40.695312 -17.921875 40.59375 -17.765625 C 40.164062 -17.191406 39.796875 -16.769531 39.484375 -16.5 L 37.109375 -14.296875 L 35.9375 -13.34375 C 35.25 -12.875 34.378906 -12.398438 33.328125 -11.921875 C 33.117188 -11.867188 32.878906 -11.800781 32.609375 -11.71875 C 32.347656 -11.644531 32.085938 -11.554688 31.828125 -11.453125 C 31.296875 -11.296875 30.71875 -11.21875 30.09375 -11.21875 Z M 30.09375 -11.21875 "/></g></g></g></g></g></g></g></svg>